{"title":"Curandero (2005) WEBRip","uid":8280983,"size":1569108994,"categoryP":"video","categoryS":"movies","magnet":"?xt=urn:btih:a00848bd91aa9f9c4185eb281ac314bdad56f82f&amp;dn=Curandero+%282005%29+WEBRip&amp;tr=udp%3A%2F%2Ftracker.openbittorrent.com%3A80&amp;tr=udp%3A%2F%2Fopen.demonii.com%3A1337&amp;tr=udp%3A%2F%2Ftracker.coppersurfer.tk%3A6969&amp;tr=udp%3A%2F%2Fexodus.desync.com%3A6969","seeders":0,"leechers":1,"uploader":"RadioResearch","files":3,"time":1363831654,"description":"*******************************************************************************\n                            Curandero (2005) WEBRip\n*******************************************************************************\n\n-------------------------------------------------------------------------------\n                              General Information\n-------------------------------------------------------------------------------\nType.................: Movie\n\n\n\nVideo Format.........: MKV\nVideo Bitrate........: 2191\nResolution...........: 640 x 360\nColor................: 8 bit\nFPS..................: 29.970\nSource...............: WEB 16:9\nOriginal Format......: NTSC\nGenre................: Horror\nIMDb Rating..........: 5.2\nMovie Information....: http://www.imdb.com/title/tt0422037/\n\n-------------------------------------------------------------------------------\n                               Post Information\n-------------------------------------------------------------------------------\nPosted by............: RadioResearch\nPosted on............: 3/21/2013\n\n-------------------------------------------------------------------------------\n                                 Release Notes\n-------------------------------------------------------------------------------\nSEEDBOX SUPPORTED!!\n\nSpanish with hard-coded English subtitles.  From Director Eduardo Rodriguez and \nwritten by the famous Robert Rodriguez.\n\nRobert Rodriguez (Sin City, Machete) presents Curandero: Dawn of the Demon,\nan action-packed horror flick that takes a couple on a horrifying journey \nthrough the deepest bowels of the Mexican underworld. When beautiful federal \nagent Magdalena calls upon curandero Don Carlos (Carlos Gallardo El Mariachi,\nGrindhouse) for his services to purify a police station, the two of them \nsuddenly find themselves immersed in a satanic cult s blood-thirsty \nbattleground.  \n\nEnjoy!\n\nRadioResearch\n\nGeneral\nComplete name                            : G:Curandero (2005)Curandero.mkv\nFormat                                   : Matroska\nFormat version                           : Version 1\nFile size                                : 1.46 GiB\nDuration                                 : 1h 35mn\nOverall bit rate                         : 2 191 Kbps\nEncoded date                             : UTC 2013-03-20 14:07:58\nWriting library                          : WonderShare Matroska Muxer\n\nVideo\nID                                       : 1\nFormat                                   : AVC\nFormat/Info                              : Advanced Video Codec\nFormat profile                           : &lt;a class=&quot;__cf_email__&quot; href=&quot;/cdn-cgi/l/email-protection&quot; data-cfemail=&quot;c785a6b4a2abaea9a2878bf4e9f7&quot;&gt;[email&amp;#160;protected]&lt;/a&gt;&lt;script cf-hash='f9e31' type=&quot;text/javascript&quot;&gt;\n/* &lt;![CDATA[ */!function(){try{var t=&quot;currentScript&quot;in document?document.currentScript:function(){for(var t=document.getElementsByTagName(&quot;script&quot;),e=t.length;e--;)if(t[e].getAttribute(&quot;cf-hash&quot;))return t[e]}();if(t&amp;&amp;t.previousSibling){var e,r,n,i,c=t.previousSibling,a=c.getAttribute(&quot;data-cfemail&quot;);if(a){for(e=&quot;&quot;,r=parseInt(a.substr(0,2),16),n=2;a.length-n;n+=2)i=parseInt(a.substr(n,2),16)^r,e+=String.fromCharCode(i);e=document.createTextNode(e),c.parentNode.replaceChild(e,c)}}}catch(u){}}();/* ]]&gt; */&lt;/script&gt;\nFormat settings, CABAC                   : No\nFormat settings, ReFrames                : 1 frame\nFormat settings, GOP                     : M=1, N=25\nCodec ID                                 : V_MPEG4/ISO/AVC\nDuration                                 : 1h 35mn\nBit rate                                 : 2 019 Kbps\nWidth                                    : 640 pixels\nHeight                                   : 360 pixels\nDisplay aspect ratio                     : 16:9\nFrame rate mode                          : Variable\nFrame rate                               : 29.970 fps\nOriginal frame rate                      : 29.000 fps\nColor space                              : YUV\nChroma subsampling                       : 4:2:0\nBit depth                                : 8 bits\nScan type                                : Progressive\nBits/(Pixel*Frame)                       : 0.292\nStream size                              : 1.35 GiB (92%)\nDefault                                  : Yes\nForced                                   : No\n\nAudio\nID                                       : 2\nFormat                                   : AC-3\nFormat/Info                              : Audio Coding 3\nMode extension                           : CM (complete main)\nFormat settings, Endianness              : Big\nCodec ID                                 : A_AC3\nDuration                                 : 1h 35mn\nBit rate mode                            : Constant\nBit rate                                 : 128 Kbps\nChannel(s)                               : 2 channels\nChannel positions                        : Front: L R\nSampling rate                            : 44.1 KHz\nBit depth                                : 16 bits\nCompression mode                         : Lossy\nStream size                              : 87.4 MiB (6%)\nDefault                                  : Yes\nForced                                   : No\n\n\n\n\n-------------------------------------------------------------------------------\nGenerated with Cool NFO Creator - http://fly.to/coolbeans\n-------------------------------------------------------------------------------\n","torrent":{"xt":"urn:btih:a00848bd91aa9f9c4185eb281ac314bdad56f82f","amp;dn":"Curandero+%282005%29+WEBRip","amp;tr":["udp%3A%2F%2Ftracker.openbittorrent.com%3A80","udp%3A%2F%2Fopen.demonii.com%3A1337","udp%3A%2F%2Ftracker.coppersurfer.tk%3A6969","udp%3A%2F%2Fexodus.desync.com%3A6969"],"infoHash":"a00848bd91aa9f9c4185eb281ac314bdad56f82f","infoHashBuffer":{"type":"Buffer","data":[160,8,72,189,145,170,159,156,65,133,235,40,26,195,20,189,173,86,248,47]},"announce":[],"urlList":[]}}